<svg xmlns="http://www.w3.org/2000/svg" xmlns:xlink="http://www.w3.org/1999/xlink" width="1920" height="1465" viewBox="0 0 1920 1465"><defs><clipPath id="a"><rect width="1920" height="1465" fill="#fff" stroke="#707070" stroke-width="1"/></clipPath></defs><g clip-path="url(#a)"><path d="M549.582,32.076c-76.481,0-142.962,43.617-175.874,107.29C340.8,75.695,274.316,32.076,197.835,32.076,88.749,32.076,0,120.823,0,229.907A196.4,196.4,0,0,0,58.514,370.351L373.708,685.556,688.833,370.42a196.446,196.446,0,0,0,58.584-140.513C747.417,120.823,658.668,32.076,549.582,32.076Z" transform="translate(-384.267 158.916)" fill="none" stroke="#f3e7dd" stroke-width="1" opacity="0.2"/><path d="M549.582,32.076c-76.481,0-142.962,43.617-175.874,107.29C340.8,75.695,274.316,32.076,197.835,32.076,88.749,32.076,0,120.823,0,229.907A196.4,196.4,0,0,0,58.514,370.351L373.708,685.556,688.833,370.42a196.446,196.446,0,0,0,58.584-140.513C747.417,120.823,658.668,32.076,549.582,32.076Z" transform="translate(1559.733 624.916)" fill="none" stroke="#f3e7dd" stroke-width="1" opacity="0.2"/><path d="M332.289,32.076a119.736,119.736,0,0,0-106.337,64.87A119.606,119.606,0,1,0,35.379,236.6l190.573,190.58L416.483,236.646a119.608,119.608,0,0,0-84.194-204.57Z" transform="translate(1158.083 -342.271) rotate(65)" fill="none" stroke="#f3e7dd" stroke-width="1" opacity="0.2"/><path d="M332.289,32.076a119.736,119.736,0,0,0-106.337,64.87A119.606,119.606,0,1,0,35.379,236.6l190.573,190.58L416.483,236.646a119.608,119.608,0,0,0-84.194-204.57Z" transform="translate(-112.962 1013.115) rotate(26)" fill="none" stroke="#f3e7dd" stroke-width="1" opacity="0.13"/></g></svg>