<svg xmlns="http://www.w3.org/2000/svg" viewBox="0 0 312 27.902"><path fill="#573528" d="M65.8 25.002v-23.7h8.1a7.028 7.028 0 015 2 6.568 6.568 0 012.1 5 7 7 0 01-4.5 6.7l5.7 9.9h-3l-5.3-9.4h-5.3v9.5zm2.7-11.8h5.2a4.25 4.25 0 003.4-1.4 4.6 4.6 0 001.4-3.4 4.467 4.467 0 00-4.6-4.6h-5.3v9.4zM86.5 25.002v-23.7h2.3l14.3 19v-19h2.7v23.7h-2.1l-14.6-19.2v19.2zM118.1 25.002v-9.7l-8.3-14h2.9l6.8 11.4 6.7-11.4h2.9l-8.3 14v9.7zM144.4 25.002v-23.7h7.6c3.8 0 6.8 1.1 8.9 3.3a11.529 11.529 0 013.3 8.6 11.529 11.529 0 01-3.3 8.6 12.436 12.436 0 01-8.9 3.2h-7.6zm2.7-2.4h4.8c6.4 0 9.8-3.7 9.8-9.4s-3.4-9.4-9.8-9.4h-4.8zM169.2 25.002v-23.7h2.7v23.7zM186.3 25.002l-9.9-23.7h2.9l8 19.2 8-19.2h2.9l-10.1 23.7zM199.3 13.202a11.917 11.917 0 013.6-8.8 12.228 12.228 0 018.8-3.5 11.834 11.834 0 018.7 3.5 11.761 11.761 0 013.6 8.8 11.761 11.761 0 01-3.6 8.8 12.162 12.162 0 01-8.7 3.5 12.4 12.4 0 01-8.8-3.5 11.917 11.917 0 01-3.6-8.8zm2.6 0a9.648 9.648 0 002.8 7.1 9.421 9.421 0 007 2.8 9.048 9.048 0 006.9-2.8 9.888 9.888 0 002.8-7.1 9.269 9.269 0 00-2.8-7 9.048 9.048 0 00-6.9-2.8 9.821 9.821 0 00-7 2.8 9.653 9.653 0 00-2.8 7zM228.7 25.002v-23.7h8.1a7.028 7.028 0 015 2 6.568 6.568 0 012.1 5 7 7 0 01-4.5 6.7l5.7 9.9h-3l-5.3-9.4h-5.3v9.5zm2.7-11.8h5.2a4.25 4.25 0 003.4-1.4 4.6 4.6 0 001.4-3.4 4.467 4.467 0 00-4.6-4.6h-5.3v9.4zM269.2 4.902l-1.8 1.6a9.046 9.046 0 00-7.2-3.2 9.421 9.421 0 00-6.9 2.8 9.821 9.821 0 00-2.8 7 9.648 9.648 0 002.8 7.1 9.048 9.048 0 006.9 2.8 8.893 8.893 0 007.3-3.3l1.8 1.6a11.336 11.336 0 01-9.1 4.1 12.4 12.4 0 01-8.8-3.5 11.761 11.761 0 01-3.6-8.8 11.917 11.917 0 013.6-8.8 12.228 12.228 0 018.8-3.5 11.923 11.923 0 019 4.1zM273.5 25.002v-23.7h13.4v2.4h-10.7v7.5h10.1v2.4h-10.1v8.8h11v2.6zM292.2 25.002v-23.7h7.6c3.8 0 6.8 1.1 8.9 3.3a11.529 11.529 0 013.3 8.6 11.529 11.529 0 01-3.3 8.6 12.437 12.437 0 01-8.9 3.2h-7.6zm2.6-2.4h4.8c6.4 0 9.8-3.7 9.8-9.4s-3.4-9.4-9.8-9.4h-4.8zM0 25.002v-23.7h2.7v9.9h13.2v-9.9h2.7v23.7h-2.7v-11.3H2.7v11.3z"/><path fill="#eab9a8" d="M55.8 2.502a8.429 8.429 0 00-13.5 2.1 8.475 8.475 0 00-15.1 7.7 6.524 6.524 0 001.6 2.1l13.5 13.5 13.4-13.5a8.3 8.3 0 00.1-11.9zm-7.1 10.7l-6.3 6.3-6.4-6.3a3.592 3.592 0 01-.7-1 4.003 4.003 0 017.1-3.7 4.018 4.018 0 013.5-2.2 3.631 3.631 0 012.8 1.2 4.171 4.171 0 010 5.7z"/></svg>