<svg xmlns="http://www.w3.org/2000/svg" viewBox="0 0 202 18.065"><g fill="#f3e7dd"><path d="M42.601 16.187V.843h5.244a4.55 4.55 0 013.237 1.295 4.253 4.253 0 011.36 3.237 4.532 4.532 0 01-2.913 4.338l3.69 6.41h-1.942l-3.431-6.086h-3.432v6.151zm1.748-7.644h3.367a2.751 2.751 0 002.2-.906 2.976 2.976 0 00.906-2.2 2.892 2.892 0 00-2.978-2.978h-3.43v6.084zM56.003 16.187V.843h1.489l9.258 12.3V.843h1.753v15.344h-1.36L57.686 3.756v12.431zM76.462 16.187v-6.28L71.088.843h1.878l4.4 7.381 4.34-7.381h1.882l-5.374 9.064v6.28zM93.489 16.187V.843h4.921a7.62 7.62 0 015.762 2.137 7.464 7.464 0 012.136 5.563 7.464 7.464 0 01-2.137 5.568 8.052 8.052 0 01-5.762 2.072h-4.92zm1.748-1.554h3.108c4.144 0 6.345-2.4 6.345-6.086s-2.2-6.086-6.345-6.086h-3.108zM109.546 16.187V.843h1.748v15.344zM120.617 16.187L114.207.843h1.878l5.179 12.431 5.18-12.431h1.878l-6.539 15.344zM129.034 8.547a7.716 7.716 0 012.331-5.7 7.917 7.917 0 015.697-2.263 7.662 7.662 0 015.633 2.266 7.615 7.615 0 012.331 5.7 7.614 7.614 0 01-2.331 5.7 7.874 7.874 0 01-5.633 2.266 8.026 8.026 0 01-5.7-2.266 7.716 7.716 0 01-2.328-5.703zm1.683 0a6.246 6.246 0 001.813 4.6 6.1 6.1 0 004.532 1.813 5.858 5.858 0 004.472-1.816 6.4 6.4 0 001.813-4.6 6 6 0 00-1.813-4.529 5.858 5.858 0 00-4.467-1.813 6.358 6.358 0 00-4.533 1.813 6.25 6.25 0 00-1.817 4.532zM148.068 16.187V.843h5.244a4.55 4.55 0 013.237 1.295 4.253 4.253 0 011.36 3.237 4.532 4.532 0 01-2.913 4.338l3.69 6.41h-1.942l-3.431-6.086h-3.431v6.151zm1.748-7.644h3.367a2.751 2.751 0 002.2-.906 2.976 2.976 0 00.906-2.2 2.892 2.892 0 00-2.978-2.978h-3.431v6.084zM174.289 3.173l-1.165 1.036a5.857 5.857 0 00-4.662-2.072 6.1 6.1 0 00-4.467 1.813 6.358 6.358 0 00-1.813 4.532 6.246 6.246 0 001.813 4.6 5.858 5.858 0 004.467 1.813 5.758 5.758 0 004.726-2.137l1.165 1.036a7.339 7.339 0 01-5.892 2.654 8.026 8.026 0 01-5.7-2.266 7.615 7.615 0 01-2.331-5.7 7.716 7.716 0 012.331-5.7 7.917 7.917 0 015.701-2.263 7.719 7.719 0 015.827 2.654zM177.073 16.187V.843h8.676v1.554h-6.928v4.856h6.539v1.553h-6.539v5.7h7.122v1.683zM189.18 16.187V.843h4.921a7.62 7.62 0 015.762 2.137 7.464 7.464 0 012.136 5.563 7.464 7.464 0 01-2.137 5.568 8.052 8.052 0 01-5.762 2.072h-4.92zm1.683-1.554h3.108c4.144 0 6.345-2.4 6.345-6.086s-2.2-6.086-6.345-6.086h-3.108z"/></g><path fill="#f3e7dd" d="M0 16.187V.843h1.748v6.41h8.546V.843h1.748v15.344h-1.748V8.871H1.748v7.316z"/><path fill="#eab9a8" d="M36.128 1.62a5.457 5.457 0 00-8.74 1.36 5.487 5.487 0 00-9.776 4.985 4.224 4.224 0 001.036 1.36l8.74 8.74 8.676-8.74a5.375 5.375 0 00.064-7.705zm-4.6 6.927l-4.079 4.079-4.142-4.079a2.325 2.325 0 01-.453-.647 2.594 2.594 0 114.6-2.4 2.6 2.6 0 012.266-1.424 2.351 2.351 0 011.813.777 2.7 2.7 0 01-.005 3.694z"/></svg>