<svg xmlns="http://www.w3.org/2000/svg" id="Layer_1" x="0" y="0" version="1.1" viewBox="0 0 312 27.9" xml:space="preserve"><style>.st0{enable-background:new}.st1{fill:#573528}.st2{fill:#eab9a8}</style><g class="st0"><path d="M65.8 25V1.3h8.1c2 0 3.6.7 5 2s2.1 3 2.1 5c0 3.1-1.8 5.7-4.5 6.7l5.7 9.9h-3l-5.3-9.4h-5.3V25h-2.8zm2.7-11.8h5.2c1.4 0 2.5-.4 3.4-1.4.9-.9 1.4-2 1.4-3.4 0-2.6-1.9-4.6-4.6-4.6h-5.3v9.4zM86.5 25V1.3h2.3l14.3 19v-19h2.7V25h-2.1L89.1 5.8V25h-2.6zM118.1 25v-9.7l-8.3-14h2.9l6.8 11.4 6.7-11.4h2.9l-8.3 14V25h-2.7zM144.4 25V1.3h7.6c3.8 0 6.8 1.1 8.9 3.3 2.2 2.2 3.3 5 3.3 8.6 0 3.6-1.1 6.4-3.3 8.6-2.2 2.1-5.2 3.2-8.9 3.2h-7.6zm2.7-2.4h4.8c6.4 0 9.8-3.7 9.8-9.4s-3.4-9.4-9.8-9.4h-4.8v18.8zM169.2 25V1.3h2.7V25h-2.7zM186.3 25l-9.9-23.7h2.9l8 19.2 8-19.2h2.9L188.1 25h-1.8zM199.3 13.2c0-3.5 1.2-6.4 3.6-8.8 2.4-2.3 5.3-3.5 8.8-3.5s6.4 1.2 8.7 3.5c2.4 2.3 3.6 5.3 3.6 8.8 0 3.5-1.2 6.5-3.6 8.8-2.4 2.3-5.3 3.5-8.7 3.5s-6.4-1.2-8.8-3.5c-2.4-2.4-3.6-5.3-3.6-8.8zm2.6 0c0 2.8.9 5.2 2.8 7.1 1.9 1.9 4.2 2.8 7 2.8s5.1-.9 6.9-2.8c1.8-1.9 2.8-4.2 2.8-7.1 0-2.8-.9-5.2-2.8-7-1.8-1.9-4.1-2.8-6.9-2.8-2.8 0-5.1 1-7 2.8-1.8 1.8-2.8 4.2-2.8 7zM228.7 25V1.3h8.1c2 0 3.6.7 5 2s2.1 3 2.1 5c0 3.1-1.8 5.7-4.5 6.7l5.7 9.9h-3l-5.3-9.4h-5.3V25h-2.8zm2.7-11.8h5.2c1.4 0 2.5-.4 3.4-1.4.9-.9 1.4-2 1.4-3.4 0-2.6-1.9-4.6-4.6-4.6h-5.3v9.4zM269.2 4.9l-1.8 1.6c-1.8-2.1-4.2-3.2-7.2-3.2-2.8 0-5.1 1-6.9 2.8-1.8 1.9-2.8 4.2-2.8 7s.9 5.2 2.8 7.1c1.8 1.9 4.1 2.8 6.9 2.8 3.1 0 5.5-1.1 7.3-3.3l1.8 1.6c-2.4 2.8-5.4 4.1-9.1 4.1-3.4 0-6.4-1.2-8.8-3.5-2.4-2.3-3.6-5.3-3.6-8.8 0-3.5 1.2-6.4 3.6-8.8 2.4-2.3 5.3-3.5 8.8-3.5 3.6.1 6.6 1.4 9 4.1zM273.5 25V1.3h13.4v2.4h-10.7v7.5h10.1v2.4h-10.1v8.8h11V25h-13.7zM292.2 25V1.3h7.6c3.8 0 6.8 1.1 8.9 3.3 2.2 2.2 3.3 5 3.3 8.6 0 3.6-1.1 6.4-3.3 8.6-2.2 2.1-5.2 3.2-8.9 3.2h-7.6zm2.6-2.4h4.8c6.4 0 9.8-3.7 9.8-9.4s-3.4-9.4-9.8-9.4h-4.8v18.8z" class="st1"/></g><g class="st0"><path d="M0 25V1.3h2.7v9.9h13.2V1.3h2.7V25h-2.7V13.7H2.7V25H0z" class="st1"/></g><path d="M49.8 0zM55.8 2.5C54.2.9 52.1 0 49.8 0c-3.2 0-6.1 1.8-7.5 4.6C40.2.5 35.1-1.2 30.9.9c-4.1 2.1-5.8 7.2-3.7 11.4.4.8.9 1.5 1.6 2.1l13.5 13.5 13.4-13.5c3.4-3.2 3.4-8.6.1-11.9zm-7.1 10.7l-6.3 6.3-6.4-6.3c-.3-.3-.5-.6-.7-1-1-2-.2-4.4 1.7-5.4 2-1 4.4-.2 5.4 1.7.7-1.3 2-2.2 3.5-2.2 1.1 0 2.1.4 2.8 1.2 1.5 1.7 1.5 4.2 0 5.7z" class="st2"/></svg>