<?xml version="1.0" standalone="no"?>
<!DOCTYPE svg PUBLIC "-//W3C//DTD SVG 20010904//EN"
 "http://www.w3.org/TR/2001/REC-SVG-20010904/DTD/svg10.dtd">
<svg version="1.0" xmlns="http://www.w3.org/2000/svg"
 width="1024.000000pt" height="1024.000000pt" viewBox="0 0 1024.000000 1024.000000"
 preserveAspectRatio="xMidYMid meet">
<metadata>
Created by potrace 1.11, written by Peter Selinger 2001-2013
</metadata>
<g transform="translate(0.000000,1024.000000) scale(0.100000,-0.100000)"
fill="#000000" stroke="none">
<path d="M2488 9585 c-3 -3 -31 -8 -64 -11 -89 -8 -135 -14 -143 -18 -3 -2
-29 -7 -56 -10 -39 -5 -214 -47 -290 -69 -95 -28 -192 -63 -197 -71 -4 -6 -8
-8 -8 -4 0 21 -469 -214 -500 -251 -3 -3 -43 -32 -90 -63 -47 -32 -97 -69
-112 -83 -15 -14 -29 -25 -31 -25 -16 0 -302 -279 -357 -349 -19 -24 -42 -50
-50 -59 -8 -8 -19 -23 -25 -32 -8 -14 -88 -123 -113 -155 -20 -26 -137 -228
-134 -233 2 -2 0 -8 -5 -11 -9 -6 -70 -126 -64 -126 1 0 -9 -24 -24 -53 -23
-46 -88 -216 -101 -262 -2 -8 -13 -46 -24 -85 -12 -38 -23 -81 -26 -95 -3 -14
-10 -45 -15 -70 -20 -87 -24 -105 -34 -180 -3 -25 -10 -72 -15 -105 -12 -80
-3 -660 10 -660 1 0 7 -33 13 -76 2 -14 8 -32 12 -39 5 -8 4 -11 -2 -7 -6 4
-5 -11 2 -36 7 -23 21 -78 31 -122 9 -44 20 -84 23 -90 3 -5 7 -19 8 -30 3
-18 36 -117 53 -160 8 -19 21 -55 25 -65 26 -74 167 -364 191 -391 8 -8 14
-19 14 -23 0 -7 98 -157 109 -166 3 -3 31 -36 62 -75 31 -38 91 -104 132 -145
41 -41 1054 -1053 2251 -2249 2097 -2096 2176 -2174 2198 -2161 13 7 68 62
123 120 55 59 103 108 107 109 4 0 27 22 52 48 24 27 308 314 630 638 322 325
586 594 586 598 0 5 5 5 10 2 6 -3 10 -2 10 2 0 8 164 175 1878 1901 1046
1053 1005 1011 1080 1102 72 86 66 79 112 145 19 28 37 52 41 55 8 7 64 93 72
110 4 8 18 33 32 55 37 60 127 240 162 325 42 101 83 220 76 220 -3 0 -1 6 6
13 6 8 22 62 37 122 33 140 34 145 39 180 2 17 7 44 10 60 4 17 8 44 10 60 2
17 7 59 11 95 11 85 11 445 1 535 -17 143 -26 202 -37 230 -5 13 -6 25 -4 28
3 3 -1 27 -9 54 -8 26 -15 51 -16 56 -2 19 -13 63 -18 77 -3 8 -7 21 -9 27 -3
17 -43 144 -51 163 -3 8 -7 20 -9 25 -15 59 -177 395 -195 406 -6 3 -11 12
-12 20 -2 8 -13 29 -25 46 -12 17 -22 36 -22 42 0 6 -4 11 -8 11 -5 0 -15 12
-23 27 -12 23 -80 115 -152 207 -38 49 -109 125 -198 215 -89 88 -95 94 -189
171 -30 25 -57 47 -60 50 -3 3 -21 17 -40 30 -19 13 -37 27 -40 30 -13 14 -99
70 -108 70 -6 0 -12 4 -14 8 -8 19 -245 149 -368 201 -41 18 -84 36 -95 41
-11 5 -63 23 -115 41 -52 17 -104 34 -115 39 -24 9 -149 40 -185 46 -14 2 -36
7 -50 11 -28 7 -36 8 -100 17 -25 4 -52 8 -60 11 -68 19 -492 27 -630 12 -94
-10 -131 -15 -165 -21 -16 -4 -43 -8 -60 -11 -16 -3 -40 -7 -52 -10 -13 -3
-33 -7 -45 -10 -19 -4 -59 -13 -90 -21 -5 -1 -10 -3 -13 -4 -6 -3 -11 -4 -50
-14 -108 -27 -403 -139 -416 -159 -3 -5 -9 -8 -13 -8 -9 2 -190 -90 -220 -112
-6 -4 -54 -35 -106 -69 -52 -34 -101 -68 -108 -75 -7 -7 -16 -13 -20 -13 -4 0
-24 -15 -44 -33 -21 -17 -57 -48 -80 -67 -48 -39 -162 -145 -187 -173 -9 -10
-36 -39 -61 -65 -25 -26 -58 -65 -75 -86 -16 -21 -37 -46 -45 -55 -9 -9 -29
-34 -45 -56 -16 -22 -34 -43 -39 -47 -7 -5 -7 -8 -1 -8 6 0 6 -3 0 -8 -10 -6
-62 -83 -130 -192 -12 -19 -33 -56 -46 -82 -13 -27 -29 -48 -34 -48 -6 0 -18
17 -28 38 -9 20 -28 55 -42 77 -14 22 -30 51 -37 65 -7 14 -17 30 -23 36 -5 6
-37 51 -70 99 -33 47 -67 95 -77 106 -9 11 -31 39 -50 62 -48 61 -294 307
-353 353 -27 21 -56 45 -63 52 -8 6 -35 26 -60 44 -26 17 -48 35 -50 40 -2 4
-8 8 -12 8 -5 0 -37 19 -72 43 -144 98 -402 225 -563 278 -33 11 -69 24 -80
28 -25 11 -169 52 -198 56 -12 2 -52 10 -88 18 -71 17 -120 25 -189 33 -25 3
-58 8 -75 11 -39 7 -501 14 -507 8z m4015 -2029 c42 -9 69 -15 102 -22 17 -3
44 -12 62 -20 17 -8 36 -14 43 -14 22 0 176 -79 255 -131 74 -48 285 -246 285
-267 0 -5 11 -21 25 -36 14 -15 25 -31 25 -36 0 -5 7 -15 14 -23 23 -23 72
-112 119 -217 110 -248 133 -589 57 -862 -10 -38 -15 -68 -12 -68 4 0 2 -4 -3
-8 -6 -4 -19 -32 -29 -62 -11 -30 -35 -84 -54 -120 -19 -36 -40 -75 -46 -87
-6 -13 -14 -23 -18 -23 -5 0 -8 -7 -8 -15 0 -8 -4 -15 -10 -15 -5 0 -10 -7
-10 -15 0 -8 -4 -15 -10 -15 -5 0 -10 -5 -10 -11 0 -6 -6 -17 -12 -24 -7 -8
-26 -30 -43 -49 -45 -53 -2052 -2060 -2064 -2064 -6 -2 -53 39 -104 90 -382
378 -918 902 -929 909 -7 5 -9 9 -5 9 5 0 -4 11 -20 24 -51 43 -1047 1029
-1074 1063 -113 143 -240 415 -264 563 -2 14 -7 45 -12 70 -9 53 -10 328 -1
385 6 35 15 79 22 110 2 6 8 28 14 50 6 22 12 43 12 47 2 25 102 238 112 238
4 0 8 7 8 15 0 9 4 21 10 28 5 7 31 41 58 77 82 112 135 167 238 247 98 77
204 143 254 158 3 1 23 9 45 19 91 41 113 47 250 76 93 20 365 35 365 20 0 -3
20 -6 44 -7 24 -1 82 -11 128 -23 45 -12 88 -22 93 -23 36 -9 143 -53 159 -66
10 -9 20 -14 23 -12 5 4 149 -74 163 -89 3 -3 32 -27 65 -52 66 -50 140 -121
195 -188 46 -56 120 -166 120 -180 0 -5 5 -10 10 -10 6 0 10 -8 10 -17 1 -16
2 -16 15 2 8 11 19 26 25 33 6 6 8 12 5 12 -6 0 87 137 113 166 9 11 35 39 56
64 47 53 153 144 216 185 25 17 47 33 48 38 2 4 8 7 14 7 5 0 22 9 36 19 15
10 29 19 32 19 3 0 35 14 72 31 37 17 81 34 97 37 17 4 31 11 31 17 0 6 3 8 6
5 3 -3 31 1 62 9 69 18 84 21 142 29 25 3 47 8 49 10 6 6 302 -3 334 -10z"/>
</g>
</svg>
