<svg xmlns="http://www.w3.org/2000/svg" viewBox="0 0 174.62 15.616"><g fill="#c2b4ab"><path d="M36.827 13.993V.729h4.533a3.933 3.933 0 012.8 1.119 3.676 3.676 0 011.175 2.8 3.918 3.918 0 01-2.519 3.75l3.19 5.541h-1.679L41.36 8.676h-2.966v5.317zm1.511-6.6h2.91a2.379 2.379 0 001.9-.784 2.573 2.573 0 00.784-1.9 2.5 2.5 0 00-2.572-2.58h-2.966v5.26zM48.412 13.993V.729h1.287l8 10.634V.729h1.513v13.264h-1.174L49.867 3.248v10.745zM66.098 13.993V8.565L61.453.729h1.623l3.806 6.38 3.75-6.38h1.621l-4.645 7.836v5.429zM80.818 13.993V.729h4.254a6.588 6.588 0 014.981 1.847A6.452 6.452 0 0191.9 7.389a6.452 6.452 0 01-1.847 4.813 6.961 6.961 0 01-4.981 1.791h-4.254zm1.511-1.343h2.689c3.582 0 5.485-2.071 5.485-5.261s-1.905-5.26-5.485-5.26h-2.686zM94.698 13.993V.729h1.511v13.264zM104.269 13.993L98.728.729h1.623l4.477 10.746L109.306.729h1.622l-5.653 13.264zM111.544 7.389a6.67 6.67 0 012.015-4.925 6.844 6.844 0 014.925-1.959 6.623 6.623 0 014.869 1.959 6.582 6.582 0 012.015 4.925 6.582 6.582 0 01-2.015 4.925 6.807 6.807 0 01-4.869 1.959 6.938 6.938 0 01-4.925-1.959 6.67 6.67 0 01-2.015-4.925zm1.455 0a5.4 5.4 0 001.567 3.974 5.273 5.273 0 003.918 1.567 5.064 5.064 0 003.862-1.567 5.534 5.534 0 001.567-3.974 5.187 5.187 0 00-1.569-3.918 5.064 5.064 0 00-3.86-1.566 5.5 5.5 0 00-3.918 1.567 5.4 5.4 0 00-1.567 3.917zM127.999 13.993V.729h4.533a3.933 3.933 0 012.8 1.119 3.676 3.676 0 011.175 2.8 3.918 3.918 0 01-2.519 3.75l3.19 5.541h-1.679l-2.966-5.261h-2.966v5.317zm1.511-6.6h2.91a2.379 2.379 0 001.9-.784 2.573 2.573 0 00.784-1.9 2.5 2.5 0 00-2.572-2.58h-2.966v5.26zM150.666 2.744l-1.007.9a5.063 5.063 0 00-4.03-1.795 5.273 5.273 0 00-3.862 1.567 5.5 5.5 0 00-1.567 3.918 5.4 5.4 0 001.567 3.974 5.064 5.064 0 003.862 1.567 4.977 4.977 0 004.086-1.847l1.007.9a6.345 6.345 0 01-5.093 2.295 6.938 6.938 0 01-4.925-1.959 6.583 6.583 0 01-2.015-4.931 6.67 6.67 0 012.015-4.925 6.844 6.844 0 014.925-1.959 6.673 6.673 0 015.037 2.295zM153.072 13.993V.729h7.5v1.343h-5.989v4.2h5.653v1.341h-5.653v4.925h6.156v1.455zM163.539 13.993V.729h4.254a6.588 6.588 0 014.981 1.847 6.452 6.452 0 011.847 4.813 6.453 6.453 0 01-1.847 4.813 6.961 6.961 0 01-4.981 1.791h-4.254zm1.455-1.343h2.686c3.582 0 5.485-2.071 5.485-5.261s-1.9-5.261-5.485-5.261h-2.686z"/></g><path fill="#c2b4ab" d="M0 13.993V.729h1.511V6.27H8.9V.729h1.51v13.264H8.9V7.669H1.511v6.324zM31.229 1.402a4.717 4.717 0 00-7.556 1.175 4.744 4.744 0 00-8.453 4.308 3.651 3.651 0 00.9 1.175l7.556 7.556 7.5-7.556a4.646 4.646 0 00.053-6.658zm-3.973 5.987l-3.526 3.526-3.582-3.526a2.01 2.01 0 01-.392-.56 2.24 2.24 0 013.974-2.071 2.249 2.249 0 011.959-1.231 2.032 2.032 0 011.567.672 2.334 2.334 0 010 3.19z"/></svg>