<svg xmlns="http://www.w3.org/2000/svg" viewBox="0 0 145.439 13.007"><g fill="#eee6e3"><path d="M30.673 11.655V.607h3.776a3.276 3.276 0 012.331.932 3.062 3.062 0 01.979 2.331 3.263 3.263 0 01-2.1 3.123l2.659 4.614h-1.4l-2.469-4.381h-2.471v4.428zm1.259-5.5h2.424a1.981 1.981 0 001.585-.653 2.143 2.143 0 00.652-1.585 2.082 2.082 0 00-2.144-2.144h-2.471v4.381zM40.322 11.655V.607h1.072l6.666 8.857V.607h1.262v11.048h-.979l-6.809-8.948v8.95zM55.053 11.655V7.133L51.184.607h1.352l3.17 5.314L58.829.607h1.355l-3.869 6.526v4.522zM67.313 11.655V.607h3.543a5.487 5.487 0 014.149 1.538 5.374 5.374 0 011.538 4.009 5.374 5.374 0 01-1.538 4.009 5.8 5.8 0 01-4.149 1.492h-3.543zm1.259-1.119h2.241c2.983 0 4.568-1.725 4.568-4.382s-1.588-4.382-4.568-4.382h-2.238zM78.873 11.655V.607h1.259v11.048zM86.844 11.655L82.229.607h1.352l3.729 8.95 3.729-8.95h1.352l-4.708 11.048zM92.904 6.155a5.555 5.555 0 011.678-4.1A5.7 5.7 0 0198.684.421a5.517 5.517 0 014.056 1.632 5.482 5.482 0 011.678 4.1 5.482 5.482 0 01-1.678 4.1 5.669 5.669 0 01-4.056 1.632 5.778 5.778 0 01-4.1-1.632 5.555 5.555 0 01-1.68-4.098zm1.212 0a4.5 4.5 0 001.305 3.31 4.392 4.392 0 003.263 1.305 4.218 4.218 0 003.22-1.306 4.609 4.609 0 001.305-3.31 4.321 4.321 0 00-1.305-3.262 4.218 4.218 0 00-3.216-1.305 4.578 4.578 0 00-3.263 1.305 4.5 4.5 0 00-1.309 3.263zM106.609 11.655V.607h3.776a3.276 3.276 0 012.331.932 3.062 3.062 0 01.979 2.331 3.263 3.263 0 01-2.1 3.123l2.657 4.615h-1.4l-2.471-4.382h-2.471v4.428zm1.259-5.5h2.424a1.981 1.981 0 001.585-.653 2.143 2.143 0 00.653-1.585 2.082 2.082 0 00-2.144-2.144h-2.471v4.381zM125.489 2.285l-.839.746a4.217 4.217 0 00-3.356-1.492 4.392 4.392 0 00-3.216 1.305 4.578 4.578 0 00-1.305 3.263 4.5 4.5 0 001.305 3.31 4.218 4.218 0 003.216 1.305 4.145 4.145 0 003.4-1.538l.839.746a5.284 5.284 0 01-4.242 1.911 5.779 5.779 0 01-4.1-1.632 5.482 5.482 0 01-1.678-4.1 5.555 5.555 0 011.678-4.1 5.7 5.7 0 014.102-1.635 5.558 5.558 0 014.196 1.911zM127.493 11.655V.607h6.246v1.119h-4.988v3.5h4.708v1.115h-4.708v4.1h5.128v1.212zM136.21 11.655V.607h3.543a5.487 5.487 0 014.149 1.538 5.374 5.374 0 011.538 4.009 5.374 5.374 0 01-1.538 4.009 5.8 5.8 0 01-4.149 1.492h-3.543zm1.212-1.119h2.238c2.983 0 4.568-1.725 4.568-4.382s-1.585-4.382-4.568-4.382h-2.238z"/></g><path fill="#eee6e3" d="M0 11.655V.607h1.259v4.615h6.153V.607H8.67v11.048H7.412V6.387H1.259v5.268z"/><path fill="#eab9a8" d="M26.011 1.166a3.929 3.929 0 00-6.293.979 3.951 3.951 0 00-7.039 3.589 3.041 3.041 0 00.746.979l6.293 6.289 6.243-6.289a3.87 3.87 0 00.05-5.547zm-3.31 4.988l-2.94 2.937-2.98-2.937a1.674 1.674 0 01-.326-.466 1.866 1.866 0 013.306-1.725 1.873 1.873 0 011.632-1.026 1.693 1.693 0 011.305.559 1.944 1.944 0 01.003 2.658z"/></svg>