<svg xmlns="http://www.w3.org/2000/svg" viewBox="0 0 179.999 16.097"><g fill="#eee6e3"><path d="M37.961 14.424V.751h4.673a4.055 4.055 0 012.885 1.154 3.789 3.789 0 011.212 2.885 4.039 4.039 0 01-2.6 3.865l3.288 5.711h-1.727l-3.058-5.423h-3.058v5.481zm1.558-6.808h3a2.452 2.452 0 001.962-.808 2.652 2.652 0 00.807-1.957 2.577 2.577 0 00-2.654-2.654h-3.058v5.419zM49.903 14.424V.751h1.327l8.25 10.961V.751h1.558v13.673h-1.212L51.403 3.351v11.073zM68.133 14.424v-5.6L63.345.751h1.673l3.927 6.577L72.806.751h1.673l-4.788 8.077v5.6zM83.307 14.424V.751h4.385a6.79 6.79 0 015.135 1.9 6.651 6.651 0 011.9 4.962 6.651 6.651 0 01-1.9 4.962 7.175 7.175 0 01-5.135 1.846h-4.385zm1.558-1.385h2.769c3.692 0 5.654-2.135 5.654-5.423s-1.962-5.423-5.654-5.423h-2.769zM97.614 14.424V.751h1.558v13.673zM107.479 14.424L101.768.751h1.673l4.615 11.077L112.668.751h1.673l-5.823 13.673zM114.98 7.621a6.875 6.875 0 012.077-5.077 7.055 7.055 0 015.077-2.023 6.827 6.827 0 015.019 2.019 6.785 6.785 0 012.077 5.081 6.785 6.785 0 01-2.077 5.077 7.017 7.017 0 01-5.019 2.019 7.152 7.152 0 01-5.077-2.019 6.875 6.875 0 01-2.077-5.077zm1.5 0a5.566 5.566 0 001.615 4.1 5.435 5.435 0 004.038 1.615 5.22 5.22 0 003.981-1.615 5.7 5.7 0 001.616-4.1 5.347 5.347 0 00-1.615-4.038 5.22 5.22 0 00-3.981-1.615 5.666 5.666 0 00-4.038 1.615 5.569 5.569 0 00-1.616 4.038zM131.941 14.424V.751h4.673a4.055 4.055 0 012.885 1.154 3.789 3.789 0 011.212 2.885 4.039 4.039 0 01-2.6 3.865l3.288 5.711h-1.731l-3.058-5.423h-3.058v5.481zm1.558-6.808h3a2.452 2.452 0 001.962-.808 2.652 2.652 0 00.808-1.962 2.577 2.577 0 00-2.654-2.654h-3.058v5.424zM155.306 2.828l-1.038.923a5.219 5.219 0 00-4.154-1.846 5.435 5.435 0 00-3.981 1.615 5.666 5.666 0 00-1.615 4.043 5.566 5.566 0 001.615 4.1 5.22 5.22 0 003.981 1.615 5.131 5.131 0 004.211-1.9l1.038.923a6.54 6.54 0 01-5.25 2.365 7.152 7.152 0 01-5.077-2.019 6.785 6.785 0 01-2.076-5.084 6.875 6.875 0 012.077-5.077 7.055 7.055 0 015.077-2.023 6.878 6.878 0 015.192 2.365zM157.787 14.424V.751h7.731v1.385h-6.173v4.326h5.827v1.389h-5.827v5.077h6.342v1.5zM168.575 14.424V.751h4.385a6.79 6.79 0 015.135 1.9 6.651 6.651 0 011.9 4.962 6.651 6.651 0 01-1.9 4.962 7.175 7.175 0 01-5.135 1.846h-4.385zm1.5-1.385h2.769c3.692 0 5.654-2.135 5.654-5.423s-1.961-5.423-5.654-5.423h-2.769z"/></g><path fill="#eee6e3" d="M0 14.424V.751h1.558v5.711h7.615V.751h1.558v13.673H9.173V7.905H1.558v6.519z"/><path fill="#c2b4ab" d="M32.192 1.443a4.863 4.863 0 00-7.788 1.212 4.89 4.89 0 10-8.712 4.447 3.764 3.764 0 00.923 1.212l7.788 7.788 7.731-7.793a4.789 4.789 0 00.058-6.866zm-4.1 6.173l-3.635 3.635-3.683-3.635a2.072 2.072 0 01-.4-.577 2.311 2.311 0 014.1-2.135 2.318 2.318 0 012.019-1.269 2.1 2.1 0 011.615.692 2.406 2.406 0 01-.012 3.289z"/></svg>